<svg xmlns="http://www.w3.org/2000/svg" viewBox="0 0 17 24" fill="currentColor">
  <path d="M4.4.1c.22.1.42.26.6.47.29.35.54.85.73 1.44.19.59.32 1.25.36 1.91a4.3 4.3 0 0 1 2.05-.72h.05a4.3 4.3 0 0 1 2.48.53c.1.06.2.13.3.2.05-.65.17-1.3.36-1.87.19-.6.44-1.09.73-1.44.17-.2.37-.36.6-.46.25-.12.52-.14.79-.05.4.13.74.42 1.01.84.25.38.44.87.57 1.46.23 1.06.27 2.46.11 4.14l.05.05.03.02a5.7 5.7 0 0 1 1.56 2.67c.43 1.7.21 3.59-.54 4.65l-.02.02.01.01c.42.86.67 1.78.72 2.72l.01.04c.07 1.21-.2 2.42-.81 3.62l-.01.01.01.03c.48 1.32.62 2.64.44 3.96l-.01.04a.87.87 0 0 1-.26.48.87.87 0 0 1-.49.13.87.87 0 0 1-.42-.3.87.87 0 0 1-.1-.54c.16-1.18 0-2.36-.48-3.55l-.06-.12a.87.87 0 0 1 .2-.68l.01-.01c.6-1.05.85-2.08.8-3.09-.05-.89-.33-1.76-.8-2.58l-.09-.14a.87.87 0 0 1 .2-.66l.01-.01c.24-.18.47-.64.58-1.27a5.5 5.5 0 0 0-.1-2.24c-.2-.8-.57-1.46-1.1-1.92-.6-.5-1.38-.76-2.38-.69a.87.87 0 0 1-.63-.4.87.87 0 0 1-.06-.32c-.32-.76-.77-1.3-1.34-1.63a3.5 3.5 0 0 0-1.78-.38c-1.24.11-2.34.91-2.67 1.92a.87.87 0 0 1-.6.48.87.87 0 0 1-.38 0c-1.06 0-1.89.29-2.49.8-.52.44-.88 1.06-1.07 1.8a5.5 5.5 0 0 0-.07 2.15c.11.63.33 1.16.58 1.44l.01.01c.21.24.26.6.11.89-.36.7-.63 1.76-.67 2.77-.05 1.16.18 2.16.72 2.88l.02.02a.87.87 0 0 1 .09.78c-.57 1.41-.75 2.56-.56 3.47l.03.17a.87.87 0 0 1-1.28.55.87.87 0 0 1-.29-.54c-.25-1.16-.08-2.49.47-3.98l.02-.04-.01-.02a8 8 0 0 1-.6-1.5l-.01-.02a7.7 7.7 0 0 1-.18-2.03c.05-1.03.28-2.09.62-2.94l.02-.03-.01-.01a6.2 6.2 0 0 1-.65-1.76 7.3 7.3 0 0 1 .1-2.83c.26-1.04.77-1.93 1.53-2.58.06-.05.12-.1.18-.15-.16-1.7-.12-3.1.11-4.17.13-.59.32-1.08.56-1.46.27-.42.62-.71 1.02-.84.27-.1.54-.06.8.05ZM8.52 10.43a3.7 3.7 0 0 1 2.45.97c.63.6 1 1.4 1 2.2 0 1.01-.4 1.8-1.13 2.3-.62.43-1.45.63-2.4.63a4 4 0 0 1-2.5-.83c-.61-.54-.96-1.29-.96-2.1 0-.8.4-1.61 1.06-2.21a4 4 0 0 1 2.48-.96m0 1.02a2.9 2.9 0 0 0-1.92.74c-.46.42-.72.95-.72 1.42 0 .49.21.94.61 1.29.45.4 1.12.62 1.94.62s1.47-.17 1.93-.48c.46-.32.7-.78.7-1.43 0-.48-.25-1.01-.68-1.43a2.9 2.9 0 0 0-1.86-.73m.66 1.38.01.01c.12.17.1.42-.06.56l-.29.26v.5a.18.18 0 0 1-.3.14.18.18 0 0 1-.07-.14v-.52l-.27-.25a.18.18 0 0 1-.05-.1.18.18 0 0 1 .03-.1.18.18 0 0 1 .3-.06l.21.2.22-.2a.18.18 0 0 1 .26.04ZM4.14 10.64c.48 0 .87.45.87 1 0 .25-.1.5-.26.69-.16.19-.38.29-.6.29a.84.84 0 0 1-.62-.29.84.84 0 0 1-.25-.69c0-.26.1-.5.25-.69.16-.19.38-.31.61-.31m8.7 0c.48 0 .87.45.87 1 0 .25-.09.5-.25.69-.17.19-.39.29-.62.29a.84.84 0 0 1-.61-.29.84.84 0 0 1-.26-.69c0-.26.1-.5.26-.69.16-.19.38-.31.61-.31m-8.9-9.18.01.01a.85.85 0 0 1-.28.27c-.14.21-.26.53-.35.95-.17.79-.22 1.85-.12 3.16.43-.14.9-.24 1.4-.27l.02-.01.02-.04a7.4 7.4 0 0 0 .15-.27c.12-.88.02-1.92-.25-2.78a5.7 5.7 0 0 0-.45-.92.87.87 0 0 0-.12-.1m9.17.04v.01a.87.87 0 0 0-.11.1c-.15.19-.32.51-.45.93-.29.9-.39 2.02-.24 2.92l.06.12h.04c.5 0 .99.08 1.46.24.09-1.28.04-2.32-.13-3.09a6 6 0 0 0-.35-.95.87.87 0 0 0-.28-.28"/>
</svg>
